<svg xmlns="http://www.w3.org/2000/svg" viewBox="0 0 700 350" width="700" height="350">
  <rect width="700" height="350" fill="#f0f4f8"/>
  
  <!-- Road -->
  <rect x="0" y="250" width="700" height="100" fill="#94a3b8"/>
  <rect x="20" y="295" width="80" height="10" fill="#f8fafc"/>
  <rect x="150" y="295" width="80" height="10" fill="#f8fafc"/>
  <rect x="280" y="295" width="80" height="10" fill="#f8fafc"/>
  <rect x="410" y="295" width="80" height="10" fill="#f8fafc"/>
  <rect x="540" y="295" width="80" height="10" fill="#f8fafc"/>
  
  <!-- School Bus -->
  <rect x="180" y="200" width="240" height="70" rx="10" fill="#f59e0b"/>
  <rect x="180" y="240" width="240" height="30" rx="5" fill="#f59e0b"/>
  <rect x="420" y="210" width="40" height="60" rx="5" fill="#f59e0b"/>
  
  <!-- Windows -->
  <rect x="195" y="210" width="30" height="25" rx="2" fill="#0ea5e9"/>
  <rect x="235" y="210" width="30" height="25" rx="2" fill="#0ea5e9"/>
  <rect x="275" y="210" width="30" height="25" rx="2" fill="#0ea5e9"/>
  <rect x="315" y="210" width="30" height="25" rx="2" fill="#0ea5e9"/>
  <rect x="355" y="210" width="30" height="25" rx="2" fill="#0ea5e9"/>
  <rect x="425" y="215" width="25" height="20" rx="2" fill="#0ea5e9"/>
  
  <!-- Wheels -->
  <circle cx="230" cy="270" r="20" fill="#1e293b"/>
  <circle cx="230" cy="270" r="10" fill="#94a3b8"/>
  <circle cx="370" cy="270" r="20" fill="#1e293b"/>
  <circle cx="370" cy="270" r="10" fill="#94a3b8"/>
  
  <!-- School Text -->
  <text x="260" y="190" font-family="Arial" font-size="20" font-weight="bold" fill="#1e293b">SCHOOL PICKUP</text>
  
  <!-- Map Elements (Background) -->
  <rect x="520" y="50" width="140" height="140" rx="5" fill="#cbd5e1"/>
  <circle cx="590" cy="120" r="5" fill="#ef4444"/>
  <path d="M570,140 L610,100 L620,120 L590,130 Z" fill="#84cc16"/>
  <path d="M550,80 L560,70 L570,80 L560,90 Z" fill="#84cc16"/>
  <path d="M620,80 L630,70 L640,80 L630,90 Z" fill="#84cc16"/>
  
  <!-- Simple road on map -->
  <path d="M540,120 L640,120" stroke="#1e293b" stroke-width="2"/>
  <path d="M590,70 L590,170" stroke="#1e293b" stroke-width="2"/>
  
  <!-- Phone outline -->
  <rect x="50" y="50" width="100" height="180" rx="10" fill="#1e293b"/>
  <rect x="55" y="55" width="90" height="170" rx="8" fill="#f8fafc"/>
  
  <!-- App interface on phone -->
  <rect x="60" y="65" width="80" height="20" rx="3" fill="#0284c7"/>
  <circle cx="70" cy="75" r="5" fill="#f8fafc"/>
  <rect x="60" y="95" width="80" height="120" rx="3" fill="#f1f5f9"/>
  <rect x="65" y="100" width="70" height="30" rx="3" fill="#e2e8f0"/>
  <rect x="65" y="135" width="70" height="10" rx="2" fill="#94a3b8"/>
  <rect x="65" y="150" width="40" height="10" rx="2" fill="#94a3b8"/>
  <rect x="65" y="165" width="70" height="10" rx="2" fill="#94a3b8"/>
  <rect x="65" y="180" width="70" height="30" rx="3" fill="#3b82f6"/>
  <text x="85" y="200" font-family="Arial" font-size="12" text-anchor="middle" fill="#f8fafc">RIDE</text>
</svg> 